# xmcd
#
# Track frame offsets:
#	150
#	15768
#	29180
#	42202
#	54309
#	71421
#	84309
#	97685
#	112225
#	127869
#	139240
#	151818
#	165030
#	182319
#	194666
#	210568
#
# Disc length: 3030 seconds
# Revision: 1
# Processed by: cddbd v1.5.2PL0 Copyright (c) Steve Scherf et al.
# Submitted via: dBpowerAMP V12.0
#
DISCID=c00bd410
DTITLE=Johnny Greenwood - There's Still A Country Boy In Me
DYEAR=2010
DGENRE=Country
TTITLE0=There's still a country boy in me
TTITLE1=The Ballad Of Forby Sutherland
TTITLE2=How ya goin mate
TTITLE3=Roses and Cronolines
TTITLE4=The rescue from Beaconsfield
TTITLE5=Mum and dad's waltz
TTITLE6=My old Australian home
TTITLE7=A beautiful Place
TTITLE8=Rolling waggons
TTITLE9=A satisfied mind
TTITLE10=When the Brisbane wattle blooms
TTITLE11=Spring time in the valley
TTITLE12=Charlie's dream
TTITLE13=She was happy till she met you
TTITLE14=Mother longed for white
TTITLE15=My Richmond home
EXTD=
EXTT0=
EXTT1=
EXTT2=
EXTT3=
EXTT4=
EXTT5=
EXTT6=
EXTT7=
EXTT8=
EXTT9=
EXTT10=
EXTT11=
EXTT12=
EXTT13=
EXTT14=
EXTT15=
PLAYORDER=
